<svg xmlns="http://www.w3.org/2000/svg" viewBox="1572.89990234375 1154.800048828125 1847.800048828125 693.0997314453125" fill="currentColor"><path d="M2824.3,1487l-328.5-323l-9.4-9.2l-9,9.2l-165.6,168.7c-1.4,1.4-2.8,2.9-4.2,4.3l-128-136.7l-3.5-3.7l-5.3,0l-351.5-3.3   l-37.1-0.3l26.1,26.7c101.5,103.9,204.1,206.6,306.2,309.9l2.7,2.8l-120,123.7c-14.4-15.2-28.9-30.4-43.2-45.7l-74.1-75.4   l-13.9-14.1l-13.8,14.1c-24.1,24.7-48.6,49.1-72.5,74.1c-23.7,25.1-47.8,49.9-70.9,75.6c-23.5,25.3-46.4,51.3-69.3,77.3   c-22.6,26.3-45.2,52.5-66.6,80c27.4-21.4,53.7-44,80-66.6c26-22.8,51.9-45.8,77.3-69.3c25.7-23.2,50.4-47.2,75.6-70.9   c20.3-19.4,40.2-39.2,60.2-58.9l61.5,60.5c15.4,14.5,30.7,29.1,46.1,43.6l-155.7,161.6l161.8-155.9c8.3,7.8,16.5,15.6,24.9,23.2   c25.8,24,52.2,47.4,78.7,70.7c26.8,23,53.5,46.1,81.6,67.9c-21.8-28-44.9-54.7-67.9-81.6c-23.3-26.5-46.7-52.9-70.7-78.7   c-7.5-8.3-15.2-16.4-22.8-24.5l123.9-120.2l294.2,295.8l5.6,5.6l8,0l351.5,0.2l351.5-0.6l45.8-0.1l-32.4-32.1L2824.3,1487z    M2140,1504c-94.5-93.4-188.6-187.1-283.4-280.1l309-2.9l127.4,131c-48.9,49.8-97.7,99.7-146.3,149.9l-4.3,4.4L2140,1504z    M2153.5,1517.4l4.4-4.3c50.1-48.5,100-97.2,149.7-146.1l2.7,2.8c49.4,51,99.4,101.3,149.1,152l149.3,151.8l130.7,131.8l-296.2,0.2   L2153.5,1517.4z M2740.8,1805.4L2614.5,1668l-144.6-156.2c-48.3-52-96.2-104.3-144.8-156.1l-2.8-3c1.6-1.6,3.2-3.1,4.8-4.7   l159.3-156.4l314,319.3l292.4,294.9l-306.1-0.5L2740.8,1805.4z"></path><path d="M3287.9,1684.1c-45.8-49.8-92.5-98.7-140.4-146.5c-47.8-47.8-96.7-94.6-146.5-140.4c-49.9-45.8-100.7-90.6-154.2-132.7   c42.1,53.5,86.9,104.4,132.7,154.2c45.8,49.8,92.5,98.7,140.4,146.5c47.7,47.9,96.7,94.6,146.5,140.4   c49.8,45.8,100.7,90.6,154.3,132.6C3378.5,1784.8,3333.7,1733.9,3287.9,1684.1z"></path></svg>