<svg xmlns="http://www.w3.org/2000/svg" viewBox="20 127.16114735299527 535 320.67770529400946"><g transform="rotate(0 287.5 271.24237695579654)"><svg xmlns="http://www.w3.org/2000/svg" xmlns:xlink="http://www.w3.org/1999/xlink" version="1.1" id="qqqq_1" x="90.00000000000003" y="197.16114735299527" viewBox="1572.89990234375 1154.800048828125 1847.800048828125 693.0997314453125" xml:space="preserve" height="148.16245920560254" width="394.99999999999994" preserveAspectRatio="xMinYMin" enable-background="new 0 0 5000 3000" style="overflow: visible;"><path d="M2824.3,1487l-328.5-323l-9.4-9.2l-9,9.2l-165.6,168.7c-1.4,1.4-2.8,2.9-4.2,4.3l-128-136.7l-3.5-3.7l-5.3,0l-351.5-3.3   l-37.1-0.3l26.1,26.7c101.5,103.9,204.1,206.6,306.2,309.9l2.7,2.8l-120,123.7c-14.4-15.2-28.9-30.4-43.2-45.7l-74.1-75.4   l-13.9-14.1l-13.8,14.1c-24.1,24.7-48.6,49.1-72.5,74.1c-23.7,25.1-47.8,49.9-70.9,75.6c-23.5,25.3-46.4,51.3-69.3,77.3   c-22.6,26.3-45.2,52.5-66.6,80c27.4-21.4,53.7-44,80-66.6c26-22.8,51.9-45.8,77.3-69.3c25.7-23.2,50.4-47.2,75.6-70.9   c20.3-19.4,40.2-39.2,60.2-58.9l61.5,60.5c15.4,14.5,30.7,29.1,46.1,43.6l-155.7,161.6l161.8-155.9c8.3,7.8,16.5,15.6,24.9,23.2   c25.8,24,52.2,47.4,78.7,70.7c26.8,23,53.5,46.1,81.6,67.9c-21.8-28-44.9-54.7-67.9-81.6c-23.3-26.5-46.7-52.9-70.7-78.7   c-7.5-8.3-15.2-16.4-22.8-24.5l123.9-120.2l294.2,295.8l5.6,5.6l8,0l351.5,0.2l351.5-0.6l45.8-0.1l-32.4-32.1L2824.3,1487z    M2140,1504c-94.5-93.4-188.6-187.1-283.4-280.1l309-2.9l127.4,131c-48.9,49.8-97.7,99.7-146.3,149.9l-4.3,4.4L2140,1504z    M2153.5,1517.4l4.4-4.3c50.1-48.5,100-97.2,149.7-146.1l2.7,2.8c49.4,51,99.4,101.3,149.1,152l149.3,151.8l130.7,131.8l-296.2,0.2   L2153.5,1517.4z M2740.8,1805.4L2614.5,1668l-144.6-156.2c-48.3-52-96.2-104.3-144.8-156.1l-2.8-3c1.6-1.6,3.2-3.1,4.8-4.7   l159.3-156.4l314,319.3l292.4,294.9l-306.1-0.5L2740.8,1805.4z" style="fill: currentColor;"></path><path d="M3287.9,1684.1c-45.8-49.8-92.5-98.7-140.4-146.5c-47.8-47.8-96.7-94.6-146.5-140.4c-49.9-45.8-100.7-90.6-154.2-132.7   c42.1,53.5,86.9,104.4,132.7,154.2c45.8,49.8,92.5,98.7,140.4,146.5c47.7,47.9,96.7,94.6,146.5,140.4   c49.8,45.8,100.7,90.6,154.3,132.6C3378.5,1784.8,3333.7,1733.9,3287.9,1684.1z" style="fill: currentColor;"></path></svg></g> <g transform="rotate(0 287.5 369.7938525707108)"><svg y="361.74885249441684" viewBox="1.8300000429153442 3.2100000381469727 395 16.09000015258789" x="90" height="16.09000015258789" width="395" style="overflow: visible;"><g fill="currentColor" style=""><path d="M11.10 7.90Q11.10 9.15 10.51 10.12Q9.92 11.10 8.82 11.66Q7.73 12.22 6.24 12.22L6.24 12.22Q5.34 12.22 4.30 12.03L4.30 12.03L4.30 16.72Q4.30 17.56 4.52 18.00Q4.73 18.44 4.99 18.59Q5.25 18.74 5.25 18.70L5.25 18.70L1.83 18.70Q1.83 18.74 2.09 18.59Q2.35 18.44 2.55 18.01Q2.75 17.58 2.75 16.72L2.75 16.72L2.75 5.94Q2.75 5.08 2.55 4.63Q2.35 4.17 2.09 4.01Q1.83 3.85 1.83 3.89L1.83 3.89L6.05 3.89Q7.14 3.89 7.85 4.03Q8.56 4.17 9.10 4.45L9.10 4.45Q10.07 4.95 10.59 5.89Q11.10 6.82 11.10 7.90L11.10 7.90ZM9.45 8.18Q9.45 6.65 8.50 5.70Q7.55 4.76 5.98 4.76L5.98 4.76L4.30 4.76L4.30 11.19Q5.23 11.36 6.24 11.36L6.24 11.36Q7.75 11.36 8.60 10.49Q9.45 9.62 9.45 8.18L9.45 8.18ZM19.88 11.25Q20.87 11.25 21.60 10.79Q22.34 10.33 22.71 9.59Q23.09 8.84 23.09 8.03L23.09 8.03Q23.09 7.19 22.73 6.44Q22.38 5.70 21.65 5.23Q20.92 4.76 19.86 4.76L19.86 4.76L18.03 4.76L18.03 16.72Q18.03 17.58 18.25 18.02Q18.46 18.46 18.72 18.60Q18.98 18.74 18.98 18.70L18.98 18.70L15.56 18.70Q15.56 18.74 15.82 18.59Q16.07 18.44 16.28 18.01Q16.48 17.58 16.48 16.72L16.48 16.72L16.48 5.96Q16.48 5.08 16.28 4.62Q16.07 4.15 15.82 3.99Q15.56 3.83 15.56 3.89L15.56 3.89L19.82 3.89Q21.50 3.89 22.58 4.44Q23.67 4.99 24.15 5.86Q24.64 6.74 24.64 7.77L24.64 7.77Q24.64 8.63 24.23 9.46Q23.82 10.29 23.06 10.90Q22.29 11.51 21.28 11.75L21.28 11.75L20.94 11.81L24.73 16.63Q25.48 17.47 25.97 17.93Q26.47 18.38 26.69 18.53Q26.92 18.68 26.96 18.70L26.96 18.70L24.45 18.70L18.59 11.25L19.88 11.25ZM38.95 18.70L30.84 18.70Q30.84 18.76 31.09 18.60Q31.35 18.44 31.56 17.96Q31.76 17.47 31.76 16.55L31.76 16.55L31.76 5.98Q31.76 5.10 31.56 4.64Q31.35 4.17 31.09 4.00Q30.84 3.83 30.84 3.89L30.84 3.89L38.63 3.89L38.63 6.05Q38.24 4.76 36.30 4.76L36.30 4.76L33.31 4.76L33.31 10.87L37.01 10.87Q37.44 10.87 37.74 10.73Q38.05 10.59 38.20 10.44Q38.35 10.29 38.37 10.24L38.37 10.24L38.37 12.33Q38.35 12.29 38.20 12.14Q38.05 11.99 37.75 11.86Q37.46 11.73 37.03 11.73L37.03 11.73L33.31 11.73L33.31 17.84L36.67 17.84Q37.64 17.84 38.34 17.44Q39.04 17.04 39.34 16.42L39.34 16.42L38.95 18.70ZM49.92 4.76L46.61 4.76L46.61 10.87L50.33 10.87Q51.13 10.87 51.40 10.63Q51.67 10.39 51.67 10.24L51.67 10.24L51.67 12.35Q51.67 12.29 51.57 12.15Q51.47 12.01 51.18 11.87Q50.89 11.73 50.33 11.73L50.33 11.73L46.61 11.73L46.61 16.70Q46.61 17.54 46.83 17.98Q47.04 18.42 47.30 18.58Q47.56 18.74 47.56 18.70L47.56 18.70L44.14 18.70Q44.14 18.74 44.39 18.59Q44.65 18.44 44.86 18.00Q45.06 17.56 45.06 16.70L45.06 16.70L45.06 6.00Q45.06 5.12 44.86 4.66Q44.65 4.20 44.39 4.01Q44.14 3.83 44.14 3.89L44.14 3.89L51.93 3.89L51.93 6.09Q51.82 5.57 51.32 5.16Q50.83 4.76 49.92 4.76L49.92 4.76ZM64.86 18.70L56.75 18.70Q56.75 18.76 57.00 18.60Q57.26 18.44 57.47 17.96Q57.67 17.47 57.67 16.55L57.67 16.55L57.67 5.98Q57.67 5.10 57.47 4.64Q57.26 4.17 57.00 4.00Q56.75 3.83 56.75 3.89L56.75 3.89L64.54 3.89L64.54 6.05Q64.15 4.76 62.21 4.76L62.21 4.76L59.22 4.76L59.22 10.87L62.92 10.87Q63.35 10.87 63.65 10.73Q63.95 10.59 64.10 10.44Q64.26 10.29 64.28 10.24L64.28 10.24L64.28 12.33Q64.26 12.29 64.10 12.14Q63.95 11.99 63.66 11.86Q63.37 11.73 62.94 11.73L62.94 11.73L59.22 11.73L59.22 17.84L62.58 17.84Q63.55 17.84 64.24 17.44Q64.94 17.04 65.25 16.42L65.25 16.42L64.86 18.70ZM74.37 11.25Q75.36 11.25 76.09 10.79Q76.82 10.33 77.20 9.59Q77.58 8.84 77.58 8.03L77.58 8.03Q77.58 7.19 77.22 6.44Q76.87 5.70 76.13 5.23Q75.40 4.76 74.35 4.76L74.35 4.76L72.52 4.76L72.52 16.72Q72.52 17.58 72.73 18.02Q72.95 18.46 73.21 18.60Q73.47 18.74 73.47 18.70L73.47 18.70L70.04 18.70Q70.04 18.74 70.30 18.59Q70.56 18.44 70.76 18.01Q70.97 17.58 70.97 16.72L70.97 16.72L70.97 5.96Q70.97 5.08 70.76 4.62Q70.56 4.15 70.30 3.99Q70.04 3.83 70.04 3.89L70.04 3.89L74.30 3.89Q75.98 3.89 77.07 4.44Q78.16 4.99 78.64 5.86Q79.12 6.74 79.12 7.77L79.12 7.77Q79.12 8.63 78.72 9.46Q78.31 10.29 77.54 10.90Q76.78 11.51 75.77 11.75L75.77 11.75L75.42 11.81L79.21 16.63Q79.96 17.47 80.46 17.93Q80.95 18.38 81.18 18.53Q81.41 18.68 81.45 18.70L81.45 18.70L78.93 18.70L73.08 11.25L74.37 11.25ZM89.65 11.25Q90.64 11.25 91.37 10.79Q92.10 10.33 92.48 9.59Q92.85 8.84 92.85 8.03L92.85 8.03Q92.85 7.19 92.50 6.44Q92.14 5.70 91.41 5.23Q90.68 4.76 89.63 4.76L89.63 4.76L87.80 4.76L87.80 16.72Q87.80 17.58 88.01 18.02Q88.23 18.46 88.49 18.60Q88.74 18.74 88.74 18.70L88.74 18.70L85.32 18.70Q85.32 18.74 85.58 18.59Q85.84 18.44 86.04 18.01Q86.25 17.58 86.25 16.72L86.25 16.72L86.25 5.96Q86.25 5.08 86.04 4.62Q85.84 4.15 85.58 3.99Q85.32 3.83 85.32 3.89L85.32 3.89L89.58 3.89Q91.26 3.89 92.35 4.44Q93.43 4.99 93.92 5.86Q94.40 6.74 94.40 7.77L94.40 7.77Q94.40 8.63 93.99 9.46Q93.59 10.29 92.82 10.90Q92.06 11.51 91.05 11.75L91.05 11.75L90.70 11.81L94.49 16.63Q95.24 17.47 95.74 17.93Q96.23 18.38 96.46 18.53Q96.68 18.68 96.73 18.70L96.73 18.70L94.21 18.70L88.36 11.25L89.65 11.25ZM108.71 18.70L100.60 18.70Q100.60 18.76 100.86 18.60Q101.12 18.44 101.32 17.96Q101.53 17.47 101.53 16.55L101.53 16.55L101.53 5.98Q101.53 5.10 101.32 4.64Q101.12 4.17 100.86 4.00Q100.60 3.83 100.60 3.89L100.60 3.89L108.39 3.89L108.39 6.05Q108.00 4.76 106.07 4.76L106.07 4.76L103.08 4.76L103.08 10.87L106.78 10.87Q107.21 10.87 107.51 10.73Q107.81 10.59 107.96 10.44Q108.11 10.29 108.13 10.24L108.13 10.24L108.13 12.33Q108.11 12.29 107.96 12.14Q107.81 11.99 107.52 11.86Q107.23 11.73 106.80 11.73L106.80 11.73L103.08 11.73L103.08 17.84L106.43 17.84Q107.40 17.84 108.10 17.44Q108.80 17.04 109.10 16.42L109.10 16.42L108.71 18.70ZM123.54 17.49Q121.52 18.70 118.14 18.70L118.14 18.70L113.90 18.70Q113.90 18.76 114.16 18.58Q114.42 18.40 114.62 17.90Q114.82 17.41 114.82 16.46L114.82 16.46L114.82 5.87Q114.82 5.04 114.62 4.59Q114.42 4.15 114.16 4.00Q113.90 3.85 113.90 3.89L113.90 3.89L118.12 3.89Q121.41 3.89 123.32 4.97L123.32 4.97Q125.02 5.92 125.95 7.53Q126.88 9.15 126.88 11.17L126.88 11.17Q126.88 13.36 126.00 14.97Q125.13 16.57 123.54 17.49L123.54 17.49ZM122.70 5.94Q121.75 5.32 120.68 5.04Q119.60 4.76 118.12 4.76L118.12 4.76L116.37 4.76L116.37 17.84L118.12 17.84Q119.88 17.84 121.01 17.54Q122.14 17.24 122.96 16.61L122.96 16.61Q124.01 15.79 124.58 14.47Q125.15 13.15 125.15 11.38L125.15 11.38Q125.15 9.51 124.50 8.10Q123.84 6.69 122.70 5.94L122.70 5.94ZM155.09 18.70L151.75 18.70Q152.01 18.66 152.31 18.24Q152.61 17.82 152.61 16.68L152.61 16.68L152.61 5.92L146.97 18.94L141.25 5.94L141.25 16.57Q141.25 17.73 141.63 18.19Q142.00 18.66 142.30 18.70L142.30 18.70L139.12 18.70Q139.44 18.66 139.83 18.22Q140.22 17.77 140.22 16.57L140.22 16.57L140.22 5.79Q140.22 4.76 139.85 4.37Q139.49 3.98 139.12 3.89L139.12 3.89L142.02 3.89L147.30 15.92L152.48 3.89L155.09 3.89Q154.81 3.94 154.48 4.35Q154.16 4.76 154.16 5.85L154.16 5.85L154.16 16.76Q154.16 17.84 154.48 18.25Q154.81 18.66 155.09 18.70L155.09 18.70ZM159.89 11.47Q159.89 9.19 160.86 7.40Q161.84 5.62 163.62 4.63Q165.39 3.64 167.72 3.64L167.72 3.64Q169.65 3.64 171.34 4.49Q173.03 5.34 174.06 7.04Q175.08 8.74 175.08 11.13L175.08 11.13Q175.08 13.41 174.10 15.19Q173.12 16.98 171.34 17.97Q169.57 18.96 167.24 18.96L167.24 18.96Q165.31 18.96 163.62 18.11Q161.93 17.26 160.91 15.56Q159.89 13.86 159.89 11.47L159.89 11.47ZM173.36 11.45Q173.36 9.49 172.55 7.91Q171.74 6.33 170.33 5.43Q168.92 4.54 167.16 4.54L167.16 4.54Q165.54 4.54 164.29 5.36Q163.03 6.18 162.32 7.67Q161.61 9.17 161.61 11.15L161.61 11.15Q161.61 13.10 162.41 14.69Q163.22 16.27 164.63 17.16Q166.04 18.05 167.80 18.05L167.80 18.05Q169.42 18.05 170.68 17.24Q171.94 16.42 172.65 14.92Q173.36 13.43 173.36 11.45L173.36 11.45ZM184.20 11.25Q185.19 11.25 185.92 10.79Q186.65 10.33 187.03 9.59Q187.41 8.84 187.41 8.03L187.41 8.03Q187.41 7.19 187.05 6.44Q186.70 5.70 185.97 5.23Q185.23 4.76 184.18 4.76L184.18 4.76L182.35 4.76L182.35 16.72Q182.35 17.58 182.57 18.02Q182.78 18.46 183.04 18.60Q183.30 18.74 183.30 18.70L183.30 18.70L179.88 18.70Q179.88 18.74 180.13 18.59Q180.39 18.44 180.60 18.01Q180.80 17.58 180.80 16.72L180.80 16.72L180.80 5.96Q180.80 5.08 180.60 4.62Q180.39 4.15 180.13 3.99Q179.88 3.83 179.88 3.89L179.88 3.89L184.14 3.89Q185.82 3.89 186.90 4.44Q187.99 4.99 188.47 5.86Q188.96 6.74 188.96 7.77L188.96 7.77Q188.96 8.63 188.55 9.46Q188.14 10.29 187.38 10.90Q186.61 11.51 185.60 11.75L185.60 11.75L185.26 11.81L189.04 16.63Q189.80 17.47 190.29 17.93Q190.79 18.38 191.01 18.53Q191.24 18.68 191.28 18.70L191.28 18.70L188.76 18.70L182.91 11.25L184.20 11.25ZM196.17 4.76Q195.22 4.76 194.60 5.12Q193.97 5.49 193.69 6.05L193.69 6.05L193.99 3.89L204.19 3.89L204.49 6.05Q204.21 5.49 203.59 5.12Q202.97 4.76 202.02 4.76L202.02 4.76L199.87 4.76L199.87 16.70Q199.87 17.56 200.08 18.01Q200.30 18.46 200.56 18.61Q200.81 18.76 200.81 18.70L200.81 18.70L197.39 18.70Q197.39 18.76 197.65 18.61Q197.91 18.46 198.11 18.02Q198.32 17.58 198.32 16.70L198.32 16.70L198.32 4.76L196.17 4.76ZM215.64 18.94Q213.60 18.94 211.85 18.08Q210.11 17.22 209.06 15.49Q208.00 13.77 208.00 11.30L208.00 11.30Q208.00 9.10 209.00 7.36Q210.00 5.62 211.82 4.63Q213.64 3.64 216.01 3.64L216.01 3.64Q217.51 3.64 218.73 3.98Q219.94 4.33 220.65 4.73L220.65 4.73L220.65 7.12Q219.99 5.96 218.66 5.25Q217.34 4.54 215.96 4.54L215.96 4.54Q214.05 4.54 212.64 5.35Q211.23 6.15 210.48 7.64Q209.72 9.12 209.72 11.13L209.72 11.13Q209.72 13.30 210.59 14.85Q211.47 16.40 212.91 17.17Q214.35 17.95 216.05 17.95L216.05 17.95Q216.82 17.95 217.65 17.76Q218.48 17.58 219.19 17.24L219.19 17.24L219.19 13.69Q219.19 13.02 218.98 12.64Q218.76 12.27 218.50 12.10Q218.24 11.94 218.24 11.99L218.24 11.99L221.69 11.99Q221.69 11.94 221.43 12.07Q221.17 12.20 220.96 12.56Q220.74 12.91 220.74 13.56L220.74 13.56L220.74 17.47Q219.60 18.18 218.28 18.56Q216.95 18.94 215.64 18.94L215.64 18.94ZM234.64 12.95L229.28 12.95L227.91 16.38Q227.58 17.17 227.58 17.69L227.58 17.69Q227.58 18.40 228.23 18.70L228.23 18.70L225.15 18.70Q225.37 18.70 225.78 18.27Q226.18 17.84 226.72 16.57L226.72 16.57L232.34 3.21L237.91 16.63Q238.39 17.80 238.83 18.23Q239.27 18.66 239.53 18.70L239.53 18.70L235.95 18.70Q236.49 18.44 236.49 17.90L236.49 17.90Q236.49 17.45 236.15 16.61L236.15 16.61L234.64 12.95ZM229.65 12.07L234.30 12.07L231.95 6.33L229.65 12.07ZM250.50 18.94Q248.46 18.94 246.71 18.08Q244.97 17.22 243.92 15.49Q242.86 13.77 242.86 11.30L242.86 11.30Q242.86 9.10 243.86 7.36Q244.86 5.62 246.68 4.63Q248.50 3.64 250.87 3.64L250.87 3.64Q252.37 3.64 253.59 3.98Q254.80 4.33 255.51 4.73L255.51 4.73L255.51 7.12Q254.85 5.96 253.52 5.25Q252.20 4.54 250.82 4.54L250.82 4.54Q248.91 4.54 247.50 5.35Q246.09 6.15 245.34 7.64Q244.58 9.12 244.58 11.13L244.58 11.13Q244.58 13.30 245.45 14.85Q246.33 16.40 247.77 17.17Q249.21 17.95 250.91 17.95L250.91 17.95Q251.68 17.95 252.51 17.76Q253.34 17.58 254.05 17.24L254.05 17.24L254.05 13.69Q254.05 13.02 253.84 12.64Q253.62 12.27 253.36 12.10Q253.10 11.94 253.10 11.99L253.10 11.99L256.55 11.99Q256.55 11.94 256.29 12.07Q256.03 12.20 255.82 12.56Q255.60 12.91 255.60 13.56L255.60 13.56L255.60 17.47Q254.46 18.18 253.14 18.56Q251.81 18.94 250.50 18.94L250.50 18.94ZM269.55 18.70L261.43 18.70Q261.43 18.76 261.69 18.60Q261.95 18.44 262.15 17.96Q262.36 17.47 262.36 16.55L262.36 16.55L262.36 5.98Q262.36 5.10 262.15 4.64Q261.95 4.17 261.69 4.00Q261.43 3.83 261.43 3.89L261.43 3.89L269.22 3.89L269.22 6.05Q268.84 4.76 266.90 4.76L266.90 4.76L263.91 4.76L263.91 10.87L267.61 10.87Q268.04 10.87 268.34 10.73Q268.64 10.59 268.79 10.44Q268.94 10.29 268.96 10.24L268.96 10.24L268.96 12.33Q268.94 12.29 268.79 12.14Q268.64 11.99 268.35 11.86Q268.06 11.73 267.63 11.73L267.63 11.73L263.91 11.73L263.91 17.84L267.26 17.84Q268.23 17.84 268.93 17.44Q269.63 17.04 269.93 16.42L269.93 16.42L269.55 18.70ZM291.45 7.90Q291.45 9.15 290.86 10.12Q290.27 11.10 289.17 11.66Q288.07 12.22 286.59 12.22L286.59 12.22Q285.68 12.22 284.65 12.03L284.65 12.03L284.65 16.72Q284.65 17.56 284.87 18.00Q285.08 18.44 285.34 18.59Q285.60 18.74 285.60 18.70L285.60 18.70L282.18 18.70Q282.18 18.74 282.44 18.59Q282.69 18.44 282.90 18.01Q283.10 17.58 283.10 16.72L283.10 16.72L283.10 5.94Q283.10 5.08 282.90 4.63Q282.69 4.17 282.44 4.01Q282.18 3.85 282.18 3.89L282.18 3.89L286.39 3.89Q287.49 3.89 288.20 4.03Q288.91 4.17 289.45 4.45L289.45 4.45Q290.42 4.95 290.94 5.89Q291.45 6.82 291.45 7.90L291.45 7.90ZM289.79 8.18Q289.79 6.65 288.85 5.70Q287.90 4.76 286.33 4.76L286.33 4.76L284.65 4.76L284.65 11.19Q285.58 11.36 286.59 11.36L286.59 11.36Q288.09 11.36 288.94 10.49Q289.79 9.62 289.79 8.18L289.79 8.18ZM303.29 12.95L297.93 12.95L296.55 16.38Q296.23 17.17 296.23 17.69L296.23 17.69Q296.23 18.40 296.87 18.70L296.87 18.70L293.80 18.70Q294.01 18.70 294.42 18.27Q294.83 17.84 295.37 16.57L295.37 16.57L300.98 3.21L306.56 16.63Q307.03 17.80 307.47 18.23Q307.91 18.66 308.17 18.70L308.17 18.70L304.60 18.70Q305.14 18.44 305.14 17.90L305.14 17.90Q305.14 17.45 304.79 16.61L304.79 16.61L303.29 12.95ZM298.29 12.07L302.94 12.07L300.60 6.33L298.29 12.07ZM316.28 11.25Q317.27 11.25 318.01 10.79Q318.74 10.33 319.11 9.59Q319.49 8.84 319.49 8.03L319.49 8.03Q319.49 7.19 319.14 6.44Q318.78 5.70 318.05 5.23Q317.32 4.76 316.26 4.76L316.26 4.76L314.43 4.76L314.43 16.72Q314.43 17.58 314.65 18.02Q314.86 18.46 315.12 18.60Q315.38 18.74 315.38 18.70L315.38 18.70L311.96 18.70Q311.96 18.74 312.22 18.59Q312.48 18.44 312.68 18.01Q312.88 17.58 312.88 16.72L312.88 16.72L312.88 5.96Q312.88 5.08 312.68 4.62Q312.48 4.15 312.22 3.99Q311.96 3.83 311.96 3.89L311.96 3.89L316.22 3.89Q317.90 3.89 318.98 4.44Q320.07 4.99 320.56 5.86Q321.04 6.74 321.04 7.77L321.04 7.77Q321.04 8.63 320.63 9.46Q320.22 10.29 319.46 10.90Q318.69 11.51 317.68 11.75L317.68 11.75L317.34 11.81L321.13 16.63Q321.88 17.47 322.37 17.93Q322.87 18.38 323.09 18.53Q323.32 18.68 323.36 18.70L323.36 18.70L320.85 18.70L314.99 11.25L316.28 11.25ZM328.25 4.76Q327.30 4.76 326.68 5.12Q326.05 5.49 325.77 6.05L325.77 6.05L326.08 3.89L336.28 3.89L336.58 6.05Q336.30 5.49 335.67 5.12Q335.05 4.76 334.10 4.76L334.10 4.76L331.95 4.76L331.95 16.70Q331.95 17.56 332.17 18.01Q332.38 18.46 332.64 18.61Q332.90 18.76 332.90 18.70L332.90 18.70L329.48 18.70Q329.48 18.76 329.73 18.61Q329.99 18.46 330.20 18.02Q330.40 17.58 330.40 16.70L330.40 16.70L330.40 4.76L328.25 4.76ZM351.53 3.89L354.57 3.89Q354.27 3.96 353.97 4.38Q353.68 4.80 353.68 5.85L353.68 5.85L353.68 19.30L342.67 6.46L342.67 16.76Q342.67 17.80 343.03 18.22Q343.40 18.64 343.74 18.70L343.74 18.70L340.71 18.70Q341.01 18.64 341.32 18.22Q341.63 17.80 341.63 16.74L341.63 16.74L341.63 5.98Q341.63 5.25 341.14 4.65Q340.64 4.05 339.89 3.89L339.89 3.89L342.56 3.89L352.65 15.67L352.65 5.85Q352.65 4.20 351.53 3.89L351.53 3.89ZM367.97 18.70L359.86 18.70Q359.86 18.76 360.12 18.60Q360.38 18.44 360.58 17.96Q360.79 17.47 360.79 16.55L360.79 16.55L360.79 5.98Q360.79 5.10 360.58 4.64Q360.38 4.17 360.12 4.00Q359.86 3.83 359.86 3.89L359.86 3.89L367.65 3.89L367.65 6.05Q367.26 4.76 365.33 4.76L365.33 4.76L362.33 4.76L362.33 10.87L366.04 10.87Q366.47 10.87 366.77 10.73Q367.07 10.59 367.22 10.44Q367.37 10.29 367.39 10.24L367.39 10.24L367.39 12.33Q367.37 12.29 367.22 12.14Q367.07 11.99 366.78 11.86Q366.49 11.73 366.06 11.73L366.06 11.73L362.33 11.73L362.33 17.84L365.69 17.84Q366.66 17.84 367.36 17.44Q368.06 17.04 368.36 16.42L368.36 16.42L367.97 18.70ZM377.48 11.25Q378.47 11.25 379.21 10.79Q379.94 10.33 380.31 9.59Q380.69 8.84 380.69 8.03L380.69 8.03Q380.69 7.19 380.34 6.44Q379.98 5.70 379.25 5.23Q378.52 4.76 377.46 4.76L377.46 4.76L375.63 4.76L375.63 16.72Q375.63 17.58 375.85 18.02Q376.06 18.46 376.32 18.60Q376.58 18.74 376.58 18.70L376.58 18.70L373.16 18.70Q373.16 18.74 373.42 18.59Q373.68 18.44 373.88 18.01Q374.08 17.58 374.08 16.72L374.08 16.72L374.08 5.96Q374.08 5.08 373.88 4.62Q373.68 4.15 373.42 3.99Q373.16 3.83 373.16 3.89L373.16 3.89L377.42 3.89Q379.10 3.89 380.18 4.44Q381.27 4.99 381.76 5.86Q382.24 6.74 382.24 7.77L382.24 7.77Q382.24 8.63 381.83 9.46Q381.42 10.29 380.66 10.90Q379.89 11.51 378.88 11.75L378.88 11.75L378.54 11.81L382.33 16.63Q383.08 17.47 383.57 17.93Q384.07 18.38 384.29 18.53Q384.52 18.68 384.56 18.70L384.56 18.70L382.05 18.70L376.19 11.25L377.48 11.25ZM392.35 18.96Q391.23 18.96 390.20 18.65Q389.17 18.33 388.35 17.77L388.35 17.77L388.35 15.17Q388.91 16.61 390.06 17.35Q391.21 18.10 392.46 18.10L392.46 18.10Q393.71 18.10 394.55 17.27Q395.39 16.44 395.39 15.21L395.39 15.21Q395.39 14.40 395.05 13.82Q394.72 13.23 393.99 12.73Q393.26 12.22 391.92 11.60L391.92 11.60Q390.05 10.74 389.20 9.80Q388.35 8.87 388.35 7.53L388.35 7.53Q388.35 6.39 388.90 5.50Q389.45 4.61 390.38 4.12Q391.32 3.64 392.44 3.64L392.44 3.64Q393.41 3.64 394.33 3.91Q395.26 4.17 396.05 4.67L396.05 4.67L396.05 6.99Q395.54 5.81 394.49 5.15Q393.45 4.50 392.37 4.50L392.37 4.50Q391.15 4.50 390.40 5.29Q389.64 6.09 389.64 7.19L389.64 7.19Q389.64 7.98 390.09 8.55Q390.55 9.12 391.20 9.51Q391.86 9.90 393.04 10.46L393.04 10.46Q394.25 11.04 395.02 11.53Q395.80 12.03 396.31 12.83Q396.83 13.62 396.83 14.76L396.83 14.76Q396.83 16.05 396.22 17.00Q395.60 17.95 394.58 18.45Q393.56 18.96 392.35 18.96L392.35 18.96Z" transform="translate(0, 0)"></path></g></svg></g></svg>